<?xml version="1.0" encoding="UTF-8" standalone="no"?>
<svg
   width="149"
   height="149"
   version="1.1"
   id="svg4"
   sodipodi:docname="icon.svg"
   inkscape:version="1.1.2 (0a00cf5339, 2022-02-04)"
   xmlns:inkscape="http://www.inkscape.org/namespaces/inkscape"
   xmlns:sodipodi="http://sodipodi.sourceforge.net/DTD/sodipodi-0.dtd"
   xmlns="http://www.w3.org/2000/svg"
   xmlns:svg="http://www.w3.org/2000/svg">
  <defs
     id="defs8">
    <marker
       style="overflow:visible;"
       id="Arrow1Lend"
       refX="0.0"
       refY="0.0"
       orient="auto"
       inkscape:stockid="Arrow1Lend"
       inkscape:isstock="true">
      <path
         transform="scale(0.8) rotate(180) translate(12.5,0)"
         style="fill-rule:evenodd;fill:context-stroke;stroke:context-stroke;stroke-width:1.0pt;"
         d="M 0.0,0.0 L 5.0,-5.0 L -12.5,0.0 L 5.0,5.0 L 0.0,0.0 z "
         id="path1946" />
    </marker>
  </defs>
  <sodipodi:namedview
     id="namedview6"
     pagecolor="#ffffff"
     bordercolor="#666666"
     borderopacity="1.0"
     inkscape:pageshadow="2"
     inkscape:pageopacity="0.0"
     inkscape:pagecheckerboard="0"
     showgrid="false"
     height="149px"
     inkscape:snap-nodes="false"
     inkscape:snap-page="true"
     inkscape:zoom="1"
     inkscape:cx="77"
     inkscape:cy="27.5"
     inkscape:window-width="1920"
     inkscape:window-height="1030"
     inkscape:window-x="3286"
     inkscape:window-y="0"
     inkscape:window-maximized="1"
     inkscape:current-layer="svg4" />
  <path
     d="m 124.97904,138.58515 c 0,5.72799 -4.68595,10.41485 -10.41393,10.41485 H 10.413928 C 4.685947,149 0,144.31405 0,138.58515 V 59.429034 C 0,53.701053 4.685947,49.015106 10.413928,49.015106 H 114.56511 c 5.72798,0 10.41393,4.685947 10.41393,10.413928 z M 10.413928,57.346798 c -1.106188,0 -2.081319,0.978798 -2.081319,2.081319 v 79.156123 c 0,1.10619 0.976048,2.08132 2.081319,2.08132 H 114.56511 c 1.10252,0 2.08407,-0.97513 2.08407,-2.08132 V 59.428117 c 0,-1.102521 -0.98155,-2.081319 -2.08407,-2.081319 z m 18.749285,33.327686 c -6.900155,0 -12.501663,-5.597842 -12.501663,-12.496164 0,-6.898322 5.601508,-12.498913 12.501663,-12.498913 6.897407,0 12.493414,5.600591 12.493414,12.498913 0,6.898322 -5.595092,12.496164 -12.493414,12.496164 z M 108.31382,132.33661 H 16.66155 V 119.83587 L 37.493073,99.009842 47.907001,109.42102 81.234685,76.097001 108.31382,103.17615 Z"
     id="path832"
     style="stroke-width:0.999996" />
  <path
     style="fill:#000000;stroke-width:0.999996"
     d="m 27.121094,33.578125 c -5.727981,0 -10.414063,4.686082 -10.414063,10.414063 v 5.023437 h 8.332031 v -5.025391 c 0,-1.102521 0.975844,-2.080078 2.082032,-2.080078 H 131.27148 c 1.10252,0 2.08594,0.977557 2.08594,2.080078 v 79.156246 c 0,1.10619 -0.98342,2.08204 -2.08594,2.08204 h -6.29296 v 8.33398 h 6.29296 c 5.72798,0 10.41407,-4.68607 10.41407,-10.41406 V 43.992188 c 0,-5.727981 -4.68609,-10.414063 -10.41407,-10.414063 z"
     id="path2" />
  <path
     id="path2763"
     style="color:#000000;fill:#2976ff;fill-opacity:1;fill-rule:evenodd;stroke-width:1;-inkscape-stroke:none"
     d="m 87.351949,1.2032572 10.67152,5.9559966 C 86.660179,8.5778095 56.019593,28.948882 55.851683,56.701606 64.419753,32.860051 99.969832,18.658755 106.21495,17.870974 L 105.69691,25.6649 149,0 Z"
     sodipodi:nodetypes="ccccccc" />
</svg>
