<?xml version="1.0" encoding="UTF-8"?>
<svg width="128" height="128" version="1.1" xmlns="http://www.w3.org/2000/svg">
 <path d="m107.36 119.05c0 4.9207-4.0255 8.947-8.9462 8.947h-89.472c-4.9207 0-8.9462-4.0255-8.9462-8.947v-68c0-4.9207 4.0255-8.9462 8.9462-8.9462h89.472c4.9207 0 8.9462 4.0255 8.9462 8.9462zm-98.418-69.789c-0.95028 0-1.788 0.84085-1.788 1.788v68c0 0.95029 0.83848 1.788 1.788 1.788h89.472c0.94713 0 1.7903-0.83769 1.7903-1.788v-68c0-0.94713-0.84321-1.788-1.7903-1.788zm16.107 28.63c-5.9276 0-10.74-4.8089-10.74-10.735s4.812-10.737 10.74-10.737c5.9253 0 10.733 4.8112 10.733 10.737s-4.8065 10.735-10.733 10.735zm67.995 35.79h-78.735v-10.739l17.896-17.891 8.9462 8.9438 28.63-28.627 23.263 23.263z" stroke-width=".99999"/>
 <path d="m23.299 28.846c-4.9207 0-8.9463 4.0256-8.9463 8.9463v4.3154h7.1577v-4.3171c0-0.94713 0.83831-1.7869 1.7886-1.7869h89.471c0.94713 0 1.792 0.83978 1.792 1.7869v68c0 0.95029-0.84482 1.7886-1.792 1.7886h-5.406v7.1594h5.406c4.9207 0 8.9463-4.0256 8.9463-8.9463v-68c0-4.9207-4.0256-8.9463-8.9463-8.9463z" stroke-width=".99999"/>
 <path d="m75.041 1.0337 9.1675 5.1166c-9.7618 1.2186-36.084 18.719-36.228 42.56 7.3605-20.481 37.9-32.681 43.265-33.358l-0.44503 6.6955 37.2-22.048z" color="#000000" fill="#2976ff" fill-rule="evenodd" style="-inkscape-stroke:none"/>
</svg>
